<?xml version="1.0" encoding="utf-8"?>
<!-- Generator: Adobe Illustrator 26.1.0, SVG Export Plug-In . SVG Version: 6.00 Build 0)  -->
<svg version="1.1" id="Layer_1" xmlns="http://www.w3.org/2000/svg" xmlns:xlink="http://www.w3.org/1999/xlink" x="0px" y="0px"
	 viewBox="0 0 1738.4 792" style="enable-background:new 0 0 1738.4 792;" xml:space="preserve">
<style type="text/css">
	.st0{display:none;fill:#353535;}
	.st1{fill:none;stroke:#FFFFFF;stroke-opacity:0.2;}
	.st2{fill:#0193B7;}
	.st3{fill:none;stroke:#FFFFFF;}
	.st4{fill:#4069B2;}
	.st5{fill:#D75050;}
	.st6{fill:none;stroke:url(#SVGID_1_);}
	.st7{fill:none;stroke:url(#SVGID_00000011729897220871639070000011630274544607814577_);}
	.st8{fill:none;stroke:url(#SVGID_00000052099092884370890940000015172705238584586122_);}
	.st9{fill:#B837C1;}
	.st10{fill:none;stroke:url(#SVGID_00000080175620494084262430000016207513041013734586_);}
	.st11{fill:#EE8222;}
	.st12{fill:none;stroke:url(#SVGID_00000049904397590335403490000014794704949365929663_);}
	.st13{fill:#4F8880;}
	.st14{fill:#7300CE;}
	.st15{fill:none;stroke:url(#SVGID_00000003791128418907318720000001600330059904627383_);}
	.st16{fill:none;stroke:url(#SVGID_00000162314064977048902200000001909094263615307148_);}
</style>
<g>
	<rect x="69.8" y="19.3" class="st0" width="792" height="777.7"/>
	<path class="st1" d="M1858.1,528.1h-332.2c-21.6,0-39.1-17.5-39.1-39.1V372.7c0-21.6-17.5-39.1-39.1-39.1h-173.9
		c-21.6,0-39.1,17.5-39.1,39.1v21.5c0,21.6-17.5,39.1-39.1,39.1h-133.9c-21.6,0-39.1,17.5-39.1,39.1v79.1
		c0,21.6-17.5,39.1-39.1,39.1H480c-39.1,0-70.8,31.7-70.8,70.8v35.8c0,33.2-26.9,60.1-60.1,60.1H-16.6"/>
	<path class="st1" d="M830.3,803.9V455.8c0-20.5-16.6-37.1-37.1-37.1l0,0c-19,0-34.5-15.4-34.5-34.5V208.8v-96.7
		c0-10.8-8.7-19.5-19.5-19.5H497.1c-10.8,0-19.5-8.7-19.5-19.5v-85.8 M818.8-8v276.2c0,22.4,18.2,40.6,40.6,40.6h84.3"/>
	<path class="st1" d="M450.2-54.2v64.5c0,21.6-17.5,39.1-39.1,39.2H138c-10.8,0-19.5,8.7-19.5,19.5v162.2c0,10.7,8.7,19.5,19.5,19.5
		h18.1c10.8,0,19.5,8.7,19.5,19.5v134.9v399"/>
	<g>
		<g>
			
				<image style="overflow:visible;enable-background:new    ;" width="45" height="45" xlink:href="648269FD.png"  transform="matrix(-4.489665e-11 1 1 4.489665e-11 796.2335 54.3)">
			</image>
			<g>
				<circle class="st2" cx="818.8" cy="76.6" r="3.9"/>
			</g>
		</g>
		<circle class="st3" cx="818.8" cy="76.6" r="3.4"/>
	</g>
	<g>
		<g>
			
				<image style="overflow:visible;enable-background:new    ;" width="45" height="45" xlink:href="648269F0.png"  transform="matrix(-4.489665e-11 1 1 4.489665e-11 96.2335 169.3)">
			</image>
			<g>
				<circle class="st4" cx="118.4" cy="191.6" r="3.9"/>
			</g>
		</g>
		<circle class="st3" cx="118.4" cy="191.6" r="3.4"/>
	</g>
	<g>
		<g>
			
				<image style="overflow:visible;enable-background:new    ;" width="44" height="44" xlink:href="648269F1.png"  transform="matrix(-4.489665e-11 1 1 4.489665e-11 195.2335 27.3)">
			</image>
			<g>
				<circle class="st5" cx="217.1" cy="49.3" r="3.9"/>
			</g>
		</g>
		<circle class="st3" cx="217.1" cy="49.3" r="3.4"/>
	</g>
	
		<linearGradient id="SVGID_1_" gradientUnits="userSpaceOnUse" x1="584.4999" y1="-866.3954" x2="615.4999" y2="-857.8083" gradientTransform="matrix(-4.489665e-11 1 -1 -4.489665e-11 -730.3704 -371.1969)">
		<stop  offset="0.4932" style="stop-color:#FFFFFF"/>
		<stop  offset="1" style="stop-color:#FFFFFF;stop-opacity:0"/>
	</linearGradient>
	<path class="st6" d="M148.6,250.4h-10.7c-10.8,0-19.5-8.7-19.5-19.5v-35.4"/>
	<path class="st1" d="M1090.2,510.3H758c-21.6,0-39.1-17.5-39.1-39.1V354.9c0-21.6-17.5-39.1-39.1-39.1h-76.7
		c-21.6,0-39.1,17.5-39.1,39.1v21.5c0,21.6-17.5,39.1-39.1,39.1H293.8c-21.6,0-39.1,17.5-39.1,39.1v24c0,21.6-17.5,39.1-39.1,39.1
		H37.8"/>
	
		<linearGradient id="SVGID_00000142887192011102862400000011288793094920836256_" gradientUnits="userSpaceOnUse" x1="396.9442" y1="-1552.6072" x2="396.6002" y2="-1546.6741" gradientTransform="matrix(-4.489665e-11 1 -1 -4.489665e-11 -730.3704 -371.1969)">
		<stop  offset="0" style="stop-color:#FFFFFF"/>
		<stop  offset="1" style="stop-color:#FFFFFF;stop-opacity:0"/>
	</linearGradient>
	<path style="fill:none;stroke:url(#SVGID_00000142887192011102862400000011288793094920836256_);" d="M818.8-22v95.1"/>
	
		<linearGradient id="SVGID_00000150062244094937298270000004316195440594093221_" gradientUnits="userSpaceOnUse" x1="463.6422" y1="-1225.3539" x2="366.9042" y2="-1225.3539" gradientTransform="matrix(-4.489665e-11 1 -1 -4.489665e-11 -730.3704 -371.1969)">
		<stop  offset="0" style="stop-color:#FFFFFF"/>
		<stop  offset="1" style="stop-color:#FFFFFF;stop-opacity:0"/>
	</linearGradient>
	<path style="fill:none;stroke:url(#SVGID_00000150062244094937298270000004316195440594093221_);" d="M513.3,92.4h-16.7
		c-10.7,0-19.5-8.7-19.5-19.5V-4.3"/>
	<line class="st1" x1="516.7" y1="92.7" x2="516.7" y2="19.3"/>
	<path class="st1" d="M315.6,804.1V322.7c0-17.6,14.3-31.9,31.9-31.9h126.6c23.5,0,42.6-19.1,42.6-42.6c0.1-52.1,0.1-103.9,0-155.5"
		/>
	<g>
		<g>
			
				<image style="overflow:visible;enable-background:new    ;" width="45" height="45" xlink:href="648269F2.png"  transform="matrix(-4.489665e-11 1 1 4.489665e-11 494.2335 70.3)">
			</image>
			<g>
				<circle class="st9" cx="516.7" cy="92.4" r="3.9"/>
			</g>
		</g>
		<circle class="st3" cx="516.7" cy="92.4" r="3.4"/>
	</g>
	
		<linearGradient id="SVGID_00000003794981222768732400000001257291793912396165_" gradientUnits="userSpaceOnUse" x1="639.5446" y1="-1492.7245" x2="639.2016" y2="-1486.7904" gradientTransform="matrix(-4.489665e-11 1 -1 -4.489665e-11 -730.3704 -371.1969)">
		<stop  offset="0" style="stop-color:#FFFFFF"/>
		<stop  offset="1" style="stop-color:#FFFFFF;stop-opacity:0"/>
	</linearGradient>
	<path style="fill:none;stroke:url(#SVGID_00000003794981222768732400000001257291793912396165_);" d="M758.9,220.6v95.1"/>
	<g>
		<g>
			
				<image style="overflow:visible;enable-background:new    ;" width="45" height="45" xlink:href="648269F3.png"  transform="matrix(-4.489665e-11 1 1 4.489665e-11 736.2335 296.3)">
			</image>
			<g>
				<circle class="st11" cx="758.7" cy="318.7" r="3.9"/>
			</g>
		</g>
		<circle class="st3" cx="758.7" cy="318.7" r="3.4"/>
	</g>
	
		<linearGradient id="SVGID_00000122696320881384639770000013033028287687539848_" gradientUnits="userSpaceOnUse" x1="735.9442" y1="-1049.4083" x2="735.6002" y2="-1043.4744" gradientTransform="matrix(-4.489665e-11 1 -1 -4.489665e-11 -730.3704 -371.1969)">
		<stop  offset="0" style="stop-color:#FFFFFF"/>
		<stop  offset="1" style="stop-color:#FFFFFF;stop-opacity:0"/>
	</linearGradient>
	<path style="fill:none;stroke:url(#SVGID_00000122696320881384639770000013033028287687539848_);" d="M315.6,317v95.1"/>
	<g>
		<g>
			
				<image style="overflow:visible;enable-background:new    ;" width="45" height="45" xlink:href="64826A0A.png"  transform="matrix(-4.489665e-11 1 1 4.489665e-11 293.2335 393.3)">
			</image>
			<g>
				<circle class="st13" cx="315.6" cy="415.5" r="3.9"/>
			</g>
		</g>
		<circle class="st3" cx="315.6" cy="415.5" r="3.4"/>
	</g>
</g>
<g>
	<g>
		
			<image style="overflow:visible;enable-background:new    ;" width="45" height="45" xlink:href="64826A0B.png"  transform="matrix(-4.489665e-11 1 1 4.489665e-11 504.2335 393.3)">
		</image>
		<g>
			<circle class="st14" cx="526.5" cy="415.5" r="3.9"/>
		</g>
	</g>
	<circle class="st3" cx="526.5" cy="415.5" r="3.4"/>
</g>
<linearGradient id="SVGID_00000101801543944596539820000003537109694296413831_" gradientUnits="userSpaceOnUse" x1="2781.4348" y1="183.5721" x2="2781.0908" y2="189.5061" gradientTransform="matrix(1 0 0 1 -2305.6562 228.5602)">
	<stop  offset="0" style="stop-color:#FFFFFF"/>
	<stop  offset="1" style="stop-color:#FFFFFF;stop-opacity:0"/>
</linearGradient>
<path style="fill:none;stroke:url(#SVGID_00000101801543944596539820000003537109694296413831_);" d="M428,415.5h95.1"/>
<path class="st3" d="M781.4,510.3"/>
<linearGradient id="SVGID_00000025417637769211969250000009064115454432830374_" gradientUnits="userSpaceOnUse" x1="2487.0347" y1="-181.7616" x2="2486.7827" y2="-177.4182" gradientTransform="matrix(1 0 0 1 -2305.6562 228.5602)">
	<stop  offset="0" style="stop-color:#FFFFFF"/>
	<stop  offset="1" style="stop-color:#FFFFFF;stop-opacity:0"/>
</linearGradient>
<path style="fill:none;stroke:url(#SVGID_00000025417637769211969250000009064115454432830374_);" d="M148.7,49.3h65"/>
</svg>
